# xmcd CD database file
#
# Track frame offsets:
#	150
#	21554
#	43811
#	68197
#	91761
#	111061
#	130884
#	148556
#	172461
#	188026
#	205790
#	217451
#	238158
#	258340
#	277155
#
# Disc length: 3996 seconds
#
# Revision: 0
# Processed by: cddbd v1.4PL0 Copyright (c) Steve Scherf et al.
# Submitted via: CDex 1.50
#
DISCID=f40f9a0f
DTITLE=Buddha-bar 5 - CD1 Dinner
DYEAR=1996
DGENRE=New Age
TTITLE0=Jade Or - bielka Nemirovski
TTITLE1=Mikis Theodorakis - I've kept a hold of my life
TTITLE2=Retractory feat JC Sindress - road
TTITLE3=Trumpet Thing - Far Away
TTITLE4=Mystic Rythms Band - Gessos Guitar Song
TTITLE5=Angelique Kidjo - Jemanja
TTITLE6=Elle Karam - Baadma
TTITLE7=David Visan and Mickael Winter - Fanitra Tiber
TTITLE8=Mariza - Loucura
TTITLE9=Maria Papadopoulou - Maskaremeni
TTITLE10=David Visan and Carlos Campos - Indra Story
TTITLE11=Laurent Dury - Silk Road
TTITLE12=Alban Samedov - Sen Gelmez Oldun
TTITLE13=Frederick Rousseau - Princess W Chena
TTITLE14=Operatica - Mon Amour
EXTD=YEAR: 1996
EXTT0=
EXTT1=
EXTT2=
EXTT3=
EXTT4=
EXTT5=
EXTT6=
EXTT7=
EXTT8=
EXTT9=
EXTT10=
EXTT11=
EXTT12=
EXTT13=
EXTT14=
PLAYORDER=
